<svg id="Base" xmlns="http://www.w3.org/2000/svg" viewBox="0 0 141.73 141.73"><defs><style>.cls-1{fill:#e0081f;}.cls-2{fill:#fff;}</style></defs><title>molgroup_ikonok_</title><circle class="cls-1" cx="70.87" cy="70.87" r="70.87"/><path class="cls-2" d="M101,89.38l-.21,0A51,51,0,0,0,95.27,89c-4.63,0-7.28,1.19-7.89,3.53-.78,3-1.44,5.45-1.69,6.39a2.25,2.25,0,0,1-.4,0c-3.31,0-11.53-4.68-24.67-17.82C45,65.46,42.48,58,42.84,56c.93-.26,3.37-.92,6.39-1.69,4.51-1.17,3.59-9.44,3.14-13.42l0-.2c-.7-6.27-2.11-14.61-6.37-14.61C36,26.28,29.68,31,27.1,40.2c-1.89,6.72-1,15.35,2.47,24.28C33.35,74.19,40,84,48.88,92.85c14.25,14.25,31.09,22.76,45,22.76h0a27.91,27.91,0,0,0,7.61-1c9.18-2.58,13.91-8.93,14.07-18.87C115.67,91.5,107.3,90.08,101,89.38Z"/></svg>